<?xml version="1.0" standalone="no"?>
<!DOCTYPE svg PUBLIC "-//W3C//DTD SVG 20010904//EN"
 "http://www.w3.org/TR/2001/REC-SVG-20010904/DTD/svg10.dtd">
<svg version="1.0" xmlns="http://www.w3.org/2000/svg"
 width="70.000000pt" height="70.000000pt" viewBox="0 0 70.000000 70.000000"
 preserveAspectRatio="xMidYMid meet">
<metadata>
Created by potrace 1.10, written by Peter Selinger 2001-2011
</metadata>
<g transform="translate(0.000000,70.000000) scale(0.100000,-0.100000)"
fill="#000000" stroke="none">
<path d="M310 610 c-65 -9 -118 -35 -131 -64 -10 -21 -7 -42 16 -118 36 -125
41 -131 96 -119 32 7 53 6 86 -5 24 -8 48 -12 53 -9 5 3 15 25 21 48 6 23 20
54 30 69 11 15 26 42 33 60 13 29 12 36 -2 61 -33 56 -118 88 -202 77z m96
-21 c29 -8 54 -23 74 -46 35 -39 34 -50 -11 -121 -16 -25 -32 -61 -35 -80 -6
-31 -9 -33 -33 -25 -14 4 -55 8 -91 8 l-65 0 -28 85 c-29 90 -31 138 -7 150
87 43 121 48 196 29z"/>
<path d="M178 232 c-37 -22 -35 -35 7 -55 42 -20 45 -20 45 -7 0 6 -12 15 -27
21 l-28 11 23 15 c21 15 30 34 15 32 -5 0 -20 -8 -35 -17z"/>
<path d="M450 239 c0 -6 9 -13 20 -16 11 -3 20 -9 20 -13 0 -5 -9 -12 -20 -15
-11 -3 -20 -11 -20 -16 0 -16 18 -10 46 15 l28 23 -31 17 c-38 19 -43 20 -43
5z"/>
<path d="M240 125 c0 -5 4 -15 8 -21 22 -32 92 -20 92 16 0 18 -6 20 -50 17
-27 -1 -50 -6 -50 -12z m90 -5 c0 -11 -48 -25 -57 -16 -3 3 5 10 18 15 32 13
39 13 39 1z"/>
<path d="M354 128 c-11 -17 35 -50 60 -42 25 7 33 15 38 32 4 17 -88 26 -98
10z m56 -14 l25 -14 -29 2 c-16 2 -31 9 -34 16 -5 16 7 15 38 -4z"/>
</g>
</svg>
