<?xml version="1.0" standalone="no"?>
<!DOCTYPE svg PUBLIC "-//W3C//DTD SVG 20010904//EN"
 "http://www.w3.org/TR/2001/REC-SVG-20010904/DTD/svg10.dtd">
<svg version="1.0" xmlns="http://www.w3.org/2000/svg"
 width="300.000000pt" height="300.000000pt" viewBox="0 0 300.000000 300.000000"
 preserveAspectRatio="xMidYMid meet">
<metadata>
Created by potrace 1.10, written by Peter Selinger 2001-2011
</metadata>
<g transform="translate(0.000000,300.000000) scale(0.100000,-0.100000)"
fill="#000000" stroke="none">
<path d="M1270 2796 c-25 -7 -103 -38 -175 -69 -71 -30 -156 -60 -187 -66
-118 -21 -203 -88 -256 -201 -20 -42 -27 -76 -30 -140 -4 -81 -2 -91 43 -215
82 -227 96 -269 107 -320 19 -89 105 -342 139 -405 18 -34 44 -70 58 -81 20
-16 24 -27 22 -64 -1 -24 3 -46 8 -50 6 -3 34 6 62 21 175 88 384 113 564 68
84 -21 220 -80 286 -124 l57 -37 6 47 c5 36 11 49 26 53 28 7 47 57 81 216 33
152 56 201 171 364 37 54 65 103 62 109 -4 6 -3 8 3 5 23 -14 122 161 148 258
23 88 19 113 -26 190 -101 174 -233 290 -398 354 -208 80 -627 127 -771 87z
m478 -32 c147 -24 312 -73 339 -99 8 -8 21 -15 30 -15 26 0 189 -147 230 -207
8 -13 19 -20 24 -17 5 3 6 -1 4 -9 -3 -7 3 -21 14 -31 11 -10 18 -23 15 -27
-3 -5 0 -9 7 -9 7 0 9 -3 6 -7 -4 -3 1 -12 11 -19 14 -10 17 -28 17 -91 0 -43
-2 -80 -5 -83 -3 -3 -20 -35 -39 -73 -34 -69 -102 -177 -133 -211 -9 -10 -14
-25 -11 -34 4 -9 2 -13 -3 -9 -10 6 -109 -135 -109 -156 -1 -7 -7 -11 -14 -9
-7 1 -9 -2 -6 -8 4 -6 -1 -20 -11 -31 -9 -10 -14 -19 -10 -19 4 0 1 -10 -5
-22 -7 -13 -14 -32 -15 -43 -2 -11 -10 -54 -18 -95 -9 -41 -19 -90 -22 -108
-4 -18 -11 -35 -15 -38 -5 -3 -9 -14 -9 -25 0 -10 -5 -19 -11 -19 -5 0 -7 -5
-4 -10 3 -6 -1 -13 -10 -17 -10 -3 -20 -1 -24 6 -4 7 -13 -3 -21 -24 -8 -19
-15 -35 -15 -35 -1 0 -33 14 -71 32 -38 17 -71 32 -74 33 -3 0 -11 4 -18 8 -7
5 -43 17 -80 27 -230 62 -406 50 -606 -40 -38 -17 -70 -29 -72 -28 -1 2 -5 35
-9 75 l-7 72 58 61 c109 114 236 156 456 148 86 -3 121 -1 98 4 -19 5 -87 10
-151 11 l-116 1 -22 111 c-18 98 -45 265 -97 600 -22 144 -15 297 16 375 29
75 45 90 94 91 34 1 37 2 16 8 -65 19 -128 -32 -157 -126 -22 -71 -24 -311 -4
-448 19 -132 76 -395 111 -509 36 -117 35 -116 10 -116 -10 0 -50 -11 -87 -25
-79 -28 -74 -31 -124 67 -43 85 -58 163 -74 395 -10 153 -21 234 -39 307 -25
96 -73 215 -100 246 -10 10 -11 22 -5 39 8 21 14 23 57 19 46 -5 46 -5 17 8
-41 18 -59 17 -86 -5 l-24 -19 37 -69 c49 -90 64 -161 88 -400 34 -335 71
-476 156 -590 l24 -32 -21 -11 c-11 -7 -39 -28 -61 -48 -39 -35 -41 -36 -55
-17 -60 81 -109 229 -148 455 -87 499 -89 505 -149 541 -20 12 -36 28 -36 37
0 24 34 73 62 90 19 11 19 12 3 8 -17 -5 -16 -3 5 15 41 35 112 67 174 78 32
6 115 35 185 65 158 67 161 68 246 75 110 9 238 1 393 -25z m-1008 -494 c12
-35 41 -159 65 -275 67 -313 120 -469 192 -564 23 -30 25 -36 13 -55 -7 -11
-16 -34 -19 -50 l-6 -29 -38 55 c-40 57 -122 286 -166 463 -13 49 -48 155 -78
235 -59 154 -74 243 -59 345 l7 47 35 -54 c18 -29 43 -82 54 -118z"/>
<path d="M1601 2649 c-101 -217 -120 -467 -67 -894 l12 -100 0 210 c1 316 35
641 83 795 11 35 18 66 16 69 -3 2 -22 -34 -44 -80z m-22 -151 c-7 -12 -14
-49 -16 -82 -2 -33 -9 -66 -15 -73 -7 -9 -7 -13 1 -13 8 0 10 -8 6 -21 -4 -11
-9 -53 -12 -92 -7 -112 -8 -117 -15 -117 -10 0 -9 33 1 88 5 23 5 42 2 42 -11
0 -3 132 9 144 13 13 13 29 -1 20 -8 -4 -8 0 0 15 7 12 11 27 9 34 -4 17 22
77 34 77 5 0 3 -10 -3 -22z"/>
<path d="M1961 2579 c-23 -50 -40 -98 -37 -106 3 -8 2 -12 -3 -9 -9 6 -15 -7
-46 -99 -48 -141 -86 -389 -83 -545 1 -47 3 -67 5 -45 28 339 42 422 96 550
73 175 131 345 118 345 -4 0 -27 -41 -50 -91z"/>
<path d="M2258 2370 c-60 -70 -115 -195 -192 -438 -29 -90 -39 -144 -50 -272
-9 -98 -21 -171 -30 -189 -21 -39 -20 -55 1 -17 26 48 33 85 43 218 19 239
154 612 260 718 11 11 16 20 11 20 -5 0 -25 -18 -43 -40z"/>
<path d="M1705 1530 c32 -11 61 -18 63 -16 5 5 -89 36 -107 35 -9 0 11 -9 44
-19z"/>
<path d="M1945 1363 c5 -10 11 -38 15 -63 l7 -45 2 40 c1 49 -8 85 -21 85 -6
0 -7 -7 -3 -17z"/>
<path d="M1084 1028 c-9 -14 49 -68 73 -68 9 0 48 10 86 22 l69 23 18 -23 c12
-14 24 -20 35 -16 14 6 12 11 -11 35 -33 35 -63 37 -139 8 -52 -19 -58 -20
-80 -5 -14 9 -25 21 -25 26 0 14 -17 13 -26 -2z"/>
<path d="M801 966 c-6 -7 -62 -38 -125 -70 -113 -56 -156 -91 -156 -127 0 -22
-1 -22 139 -86 63 -29 132 -65 153 -79 27 -19 45 -25 62 -20 31 8 52 42 37 60
-6 7 -69 39 -141 71 -71 31 -130 61 -130 66 0 13 52 46 131 82 41 19 82 43 92
54 18 21 14 52 -7 54 -6 0 -19 2 -28 4 -9 2 -22 -2 -27 -9z m-169 -153 c-15
-22 -17 -32 -9 -45 6 -9 9 -19 6 -22 -8 -8 -59 17 -59 29 0 20 18 38 33 32 11
-4 14 -1 11 8 -3 7 2 15 13 18 10 3 19 5 21 6 2 0 -5 -11 -16 -26z"/>
<path d="M2058 969 c-45 -26 -9 -58 98 -90 44 -13 82 -31 96 -46 23 -24 23
-25 3 -39 -206 -143 -212 -149 -199 -171 6 -10 17 -19 25 -21 8 -1 52 27 99
63 47 36 109 82 138 102 31 21 52 43 52 54 0 28 -82 83 -183 124 -94 38 -103
40 -129 24z"/>
<path d="M1174 857 c-21 -18 -26 -32 -26 -64 2 -105 92 -162 153 -97 20 21 24
36 24 86 0 51 -4 63 -24 79 -33 27 -93 25 -127 -4z m91 -77 c0 -18 -6 -26 -23
-28 -24 -4 -38 18 -28 44 3 9 15 14 28 12 17 -2 23 -10 23 -28z"/>
<path d="M1665 858 c-25 -19 -27 -26 -23 -75 8 -97 82 -143 144 -90 38 33 46
119 14 160 -28 35 -93 38 -135 5z m83 -77 c4 -29 -15 -43 -40 -30 -21 11 -24
45 -5 52 24 10 42 2 45 -22z"/>
<path d="M1410 584 c0 -22 46 -79 71 -88 15 -5 38 -6 52 -2 28 7 84 72 73 84
-4 4 -12 -1 -17 -11 -16 -27 -67 -49 -100 -42 -16 4 -40 21 -54 38 -14 18 -25
27 -25 21z"/>
<path d="M1300 461 c-14 -5 -52 -22 -85 -38 -33 -17 -74 -34 -92 -37 -42 -9
-105 8 -143 40 l-30 26 0 -54 c1 -139 96 -215 261 -207 134 7 236 78 246 172
6 51 -17 81 -74 96 -43 12 -48 12 -83 2z m107 -53 c7 -6 13 -22 13 -37 0 -74
-98 -141 -215 -146 -36 -2 -67 1 -71 6 -3 5 -9 7 -14 4 -24 -15 -137 80 -128
107 3 9 27 13 84 13 68 0 88 4 144 31 36 17 72 34 80 37 22 7 92 -2 107 -15z"/>
<path d="M1590 460 c-45 -11 -70 -43 -70 -89 0 -99 119 -181 263 -181 151 0
232 67 244 201 l6 61 -46 -33 c-66 -46 -118 -46 -222 3 -92 42 -126 49 -175
38z m88 -41 c26 -7 55 -18 64 -26 9 -8 22 -12 29 -7 8 5 10 3 4 -6 -6 -10 -4
-12 9 -7 9 4 15 3 11 -2 -9 -15 84 -25 131 -14 49 11 54 9 54 -23 0 -19 -67
-93 -88 -95 -4 0 -16 -3 -27 -6 -43 -11 -135 -12 -135 -2 0 6 -4 8 -9 5 -13
-9 -76 16 -104 41 -14 12 -28 19 -31 16 -3 -4 -6 1 -6 9 0 9 -6 20 -13 26 -8
7 -11 25 -9 47 4 29 9 36 36 44 17 5 32 10 34 10 2 1 24 -4 50 -10z"/>
</g>
</svg>
