<?xml version="1.0" standalone="no"?>
<!DOCTYPE svg PUBLIC "-//W3C//DTD SVG 20010904//EN"
 "http://www.w3.org/TR/2001/REC-SVG-20010904/DTD/svg10.dtd">
<svg version="1.0" xmlns="http://www.w3.org/2000/svg"
 width="300.000000pt" height="300.000000pt" viewBox="0 0 300.000000 300.000000"
 preserveAspectRatio="xMidYMid meet">
<metadata>
Created by potrace 1.10, written by Peter Selinger 2001-2011
</metadata>
<g transform="translate(0.000000,300.000000) scale(0.050000,-0.050000)"
fill="#000000" stroke="none">
<path d="M2667 4131 c-107 -75 -107 -74 -107 -1320 0 -1447 -29 -1361 461
-1361 490 0 459 -94 459 1366 0 1257 1 1239 -104 1313 -63 44 -646 46 -709 2z
m540 -156 c-5 -8 1 -15 13 -15 74 0 87 -57 84 -377 -1 -172 -2 -376 -1 -453 8
-1043 4 -1233 -24 -1251 -20 -13 -21 -18 -4 -19 14 0 25 -13 25 -30 0 -16 -9
-30 -20 -30 -11 0 -20 -16 -20 -35 1 -30 3 -31 20 -5 17 26 19 25 20 -5 0 -19
-9 -35 -20 -35 -11 0 -20 -13 -20 -29 0 -63 -141 -89 -340 -63 -27 4 -66 8
-85 9 -19 2 -35 17 -35 33 0 17 -10 30 -22 30 -13 0 -18 18 -11 43 6 24 -3 70
-20 103 -19 36 -23 64 -11 72 11 7 16 109 12 252 -13 401 -13 415 15 432 20
13 21 17 2 18 -14 0 -25 10 -25 21 0 12 8 16 19 10 10 -6 25 -1 33 12 8 14 6
18 -7 10 -22 -13 -42 24 -57 104 -5 25 -1 41 9 35 10 -7 24 1 30 17 7 19 1 25
-18 18 -16 -6 -29 -1 -29 11 0 12 9 22 20 22 12 0 12 18 0 51 -13 34 -13 47 0
39 11 -7 20 -3 20 9 0 11 -7 21 -15 21 -8 0 -15 94 -15 208 0 178 4 205 28
185 17 -13 14 0 -8 34 -28 42 -32 65 -16 90 11 19 17 110 14 209 -8 189 19
256 97 243 19 -3 35 2 35 10 0 9 76 15 168 14 93 -2 164 -10 159 -18z"/>
<path d="M1440 3386 c-162 -84 -160 -75 -160 -942 0 -1007 -18 -972 490 -960
464 10 450 -21 450 957 0 821 -2 835 -127 924 -89 63 -543 78 -653 21z m453
-126 c73 0 91 -8 106 -45 10 -25 19 -32 20 -16 1 22 7 23 24 6 21 -21 27 -466
18 -1317 -1 -151 -48 -245 -109 -222 -16 6 -33 0 -38 -14 -13 -33 -183 -40
-240 -9 -41 22 -42 21 -14 -13 28 -34 27 -35 -15 -12 -25 13 -54 19 -65 12
-10 -6 -30 6 -44 28 -18 30 -31 35 -51 18 -20 -17 -23 -14 -12 14 9 24 6 32
-8 23 -13 -8 -20 8 -17 46 2 32 -2 55 -10 50 -8 -5 -12 72 -9 170 4 127 -1
176 -17 167 -16 -10 -16 -5 0 15 25 32 30 99 7 99 -20 0 2 168 25 182 11 7 7
17 -10 24 -19 7 -26 31 -21 67 4 32 9 81 10 111 2 31 12 49 23 42 13 -8 14 -2
2 16 -10 15 -20 73 -22 128 -2 55 -7 138 -10 183 -4 46 0 79 9 74 8 -5 15 9
15 31 0 22 9 45 21 52 11 7 18 28 15 46 -5 23 12 34 62 38 38 3 74 11 80 18 7
6 52 6 100 0 48 -7 127 -12 175 -12z"/>
<path d="M3958 3074 c-131 -88 -136 -116 -137 -770 -1 -818 -5 -811 456 -819
495 -10 483 -30 483 809 0 694 -3 712 -126 787 -103 62 -580 58 -676 -7z m556
-174 c50 -32 73 -98 45 -131 -10 -12 -13 -28 -6 -35 20 -20 24 -318 6 -368
-11 -26 -10 -49 2 -56 10 -7 19 -21 19 -32 0 -11 -11 -14 -25 -5 -20 11 -20 8
-1 -15 14 -17 23 -83 22 -150 -2 -66 3 -131 11 -143 7 -12 5 -28 -7 -35 -11
-7 -20 -37 -20 -68 0 -65 -40 -189 -55 -173 -6 6 -24 0 -40 -13 -22 -18 -32
-17 -46 5 -10 16 -19 20 -19 8 0 -29 -237 -35 -304 -7 -60 24 -62 29 -56 142
1 41 -4 86 -13 100 -20 33 -24 216 -4 216 8 0 11 40 7 90 -4 49 1 95 12 101
13 8 11 23 -4 42 -22 26 -28 229 -13 409 13 142 329 219 489 118z"/>
<path d="M1222 1332 c-77 -92 -80 -92 1796 -92 1852 0 1849 0 1816 87 -18 46
-3574 51 -3612 5z"/>
</g>
</svg>
