<?xml version="1.0" standalone="no"?>
<!DOCTYPE svg PUBLIC "-//W3C//DTD SVG 20010904//EN"
 "http://www.w3.org/TR/2001/REC-SVG-20010904/DTD/svg10.dtd">
<svg version="1.0" xmlns="http://www.w3.org/2000/svg"
 width="50px" height="50px" viewBox="0 0 256 256"
 preserveAspectRatio="xMidYMid meet">

<g transform="translate(0.000000,993.000000) scale(0.100000,-0.100000)" stroke="none">
<path d="M4390 9915 c0 -9 -14 -16 -37 -20 -21 -4 -55 -13 -75 -21 -21 -8 -55
-20 -75 -28 -80 -29 -129 -48 -163 -63 -89 -38 -132 -57 -255 -113 -100 -45
-593 -292 -700 -351 -49 -27 -112 -60 -140 -75 -27 -14 -77 -40 -110 -59 -33
-18 -82 -45 -110 -59 -27 -15 -66 -36 -85 -48 -19 -11 -55 -31 -80 -45 -25
-13 -61 -34 -80 -45 -19 -11 -55 -31 -80 -45 -25 -13 -52 -28 -60 -33 -29 -19
-165 -96 -180 -103 -8 -4 -28 -16 -45 -27 -16 -11 -39 -24 -50 -30 -11 -6 -33
-19 -50 -30 -16 -11 -39 -24 -50 -30 -11 -6 -33 -19 -50 -30 -16 -11 -37 -23
-45 -27 -8 -3 -33 -18 -55 -32 -56 -36 -77 -49 -100 -61 -11 -6 -33 -19 -50
-30 -16 -11 -39 -24 -50 -30 -11 -6 -32 -18 -47 -28 -15 -9 -59 -37 -98 -62
-39 -25 -83 -53 -98 -62 -15 -10 -34 -21 -42 -25 -8 -4 -43 -26 -76 -49 -34
-23 -66 -43 -70 -45 -5 -2 -83 -53 -172 -114 -90 -60 -171 -114 -181 -120 -9
-5 -57 -40 -107 -76 -49 -36 -99 -72 -110 -80 -55 -36 -236 -183 -302 -244
-118 -110 -148 -164 -185 -335 -31 -143 -78 -498 -77 -585 0 -27 -6 -117 -14
-200 -25 -259 -31 -563 -31 -1500 0 -942 6 -1258 31 -1504 8 -79 14 -167 14
-195 -1 -140 67 -580 109 -711 29 -88 107 -180 256 -300 28 -22 52 -42 55 -45
3 -3 23 -18 45 -35 22 -16 46 -35 54 -43 8 -8 33 -25 55 -39 23 -15 75 -51
116 -82 42 -31 83 -60 92 -66 9 -5 90 -59 180 -120 89 -60 167 -112 173 -115
5 -3 37 -23 70 -45 69 -46 94 -61 115 -72 8 -4 42 -25 75 -48 34 -23 67 -44
75 -48 8 -4 29 -16 45 -27 17 -11 39 -24 50 -30 11 -6 34 -19 50 -30 17 -11
39 -24 50 -30 24 -13 47 -27 101 -62 23 -14 56 -35 75 -45 19 -10 52 -30 74
-44 22 -14 47 -29 55 -32 8 -4 29 -16 45 -27 17 -11 39 -24 50 -30 11 -6 29
-16 40 -23 11 -7 51 -30 90 -52 38 -22 79 -45 90 -52 11 -7 29 -17 40 -22 11
-6 47 -26 80 -45 33 -19 80 -46 105 -59 25 -14 61 -34 80 -45 19 -12 58 -33
85 -47 28 -15 77 -42 110 -61 33 -19 83 -46 110 -60 28 -14 91 -47 140 -74
179 -96 685 -345 823 -406 17 -8 49 -22 70 -31 65 -29 97 -41 220 -87 20 -8
55 -20 77 -29 71 -26 134 -37 215 -37 97 0 165 16 330 80 30 12 67 25 81 30
14 4 34 12 45 17 10 6 35 17 54 26 103 46 160 71 200 89 72 32 596 295 695
348 50 27 113 61 140 75 28 15 77 41 110 60 33 18 83 45 110 59 28 15 66 36
85 48 19 11 55 31 80 45 25 13 61 34 80 45 19 11 57 32 83 47 26 14 56 31 65
36 9 6 60 35 112 65 52 30 104 60 115 67 11 7 29 17 40 23 11 6 34 19 50 30
17 11 39 24 50 30 11 6 34 19 50 30 17 11 37 23 45 27 8 3 33 18 55 32 56 36
77 49 100 61 11 6 34 19 50 30 17 11 39 24 50 30 11 6 32 18 47 28 15 9 59 37
98 62 39 25 82 52 95 60 79 50 168 106 183 115 62 36 404 270 528 361 393 286
491 391 524 559 4 22 12 60 18 85 17 71 42 224 42 256 0 16 6 85 14 154 22
183 45 507 51 735 6 210 11 257 26 233 5 -7 9 383 9 877 0 494 -4 884 -9 877
-15 -24 -20 23 -26 233 -6 228 -29 552 -51 735 -8 69 -14 138 -14 154 0 32
-25 185 -42 256 -6 25 -14 63 -18 85 -33 168 -131 273 -524 559 -124 91 -466
325 -528 361 -15 9 -104 65 -183 115 -13 8 -56 35 -95 60 -39 25 -83 53 -98
62 -15 10 -36 22 -47 28 -11 6 -33 19 -50 30 -16 11 -39 24 -50 30 -23 12 -44
25 -100 61 -22 14 -47 29 -55 32 -8 4 -28 16 -45 27 -16 11 -39 24 -50 30 -11
6 -33 19 -50 30 -16 11 -39 24 -50 30 -11 6 -29 16 -40 23 -11 7 -63 37 -115
67 -52 30 -103 60 -112 65 -9 6 -39 22 -65 36 -26 15 -64 36 -83 47 -19 11
-55 32 -80 45 -25 14 -61 34 -80 45 -19 12 -57 33 -85 48 -27 14 -77 41 -110
59 -33 19 -82 45 -110 59 -27 15 -90 48 -140 75 -285 156 -836 419 -1032 495
-162 62 -195 73 -235 80 -24 4 -38 13 -38 21 0 12 -19 15 -100 15 -81 0 -100
-3 -100 -15z m-1097 -1996 c23 -12 55 -42 411 -384 355 -341 336 -320 336
-365 0 -30 -7 -48 -29 -72 l-29 -33 -159 -2 c-87 -2 -161 -3 -166 -3 -4 0 -6
-375 -5 -832 l3 -833 835 0 835 0 5 822 5 823 30 30 31 31 353 0 c391 0 373 2
405 -66 14 -30 16 -243 16 -2109 0 -1142 3 -2076 8 -2076 4 0 78 -1 164 -3
l157 -2 30 -29 c25 -24 31 -38 31 -72 0 -50 3 -47 -216 -244 -33 -30 -95 -86
-139 -125 -43 -38 -83 -75 -89 -81 -6 -6 -56 -50 -111 -99 -55 -49 -124 -111
-153 -139 -29 -28 -66 -57 -83 -65 -46 -23 -91 -1 -189 93 -708 677 -640 606
-640 659 0 35 6 49 31 73 l30 29 157 2 c86 2 160 3 165 3 4 0 6 386 5 858 l-3
857 -835 0 -835 0 -5 -843 -5 -842 -28 -35 -28 -35 -359 0 -359 0 -28 37 -28
36 -5 2091 -5 2091 -167 3 -167 2 -25 31 c-18 21 -26 42 -26 69 0 48 19 68
270 290 110 97 99 88 161 145 30 28 92 84 139 125 47 41 109 97 138 125 81 76
116 89 165 64z"/>
</g>
</svg>
