<?xml version="1.0" standalone="no"?>
<!DOCTYPE svg PUBLIC "-//W3C//DTD SVG 20010904//EN"
 "http://www.w3.org/TR/2001/REC-SVG-20010904/DTD/svg10.dtd">
<svg version="1.0" xmlns="http://www.w3.org/2000/svg"
 width="675.000000pt" height="675.000000pt" viewBox="0 0 675.000000 675.000000"
 preserveAspectRatio="xMidYMid meet">
<metadata>
Created by potrace 1.10, written by Peter Selinger 2001-2011
</metadata>
<g transform="translate(0.000000,675.000000) scale(0.100000,-0.100000)"
fill="#000000" stroke="none">
<path d="M3563 5652 c-72 -26 -158 -84 -223 -151 -65 -68 -302 -319 -420 -446
-46 -49 -143 -153 -215 -230 -72 -77 -187 -201 -256 -275 -68 -74 -169 -182
-225 -240 -55 -58 -134 -141 -175 -186 -41 -44 -128 -138 -194 -209 -205 -219
-281 -312 -323 -395 -6 -14 -24 -45 -38 -70 -38 -67 -72 -163 -95 -275 -35
-163 -19 -380 42 -565 38 -118 120 -267 205 -374 77 -95 737 -751 901 -895 90
-78 200 -151 228 -151 12 0 39 -13 61 -29 41 -30 99 -55 169 -73 22 -5 65 -17
95 -25 70 -20 132 -25 302 -23 93 0 151 6 179 15 23 8 55 15 71 15 29 0 70 14
131 46 16 8 36 14 46 14 10 0 35 13 57 30 21 16 43 30 48 30 27 1 162 106 272
213 197 189 424 418 424 427 0 4 14 24 30 45 19 24 30 49 30 69 0 17 7 42 16
55 12 16 15 35 11 64 -20 138 -42 183 -132 265 -43 40 -64 52 -88 52 -18 0
-45 9 -62 20 -38 25 -111 27 -145 3 -14 -10 -34 -16 -45 -15 -33 4 -160 -104
-385 -326 -112 -111 -206 -202 -208 -202 -2 0 -29 -18 -59 -40 -31 -22 -65
-40 -75 -40 -11 0 -29 -5 -40 -11 -11 -6 -65 -11 -120 -11 -115 1 -186 23
-253 81 -22 19 -227 218 -455 442 -378 370 -419 414 -459 485 l-44 79 -1 110
c-1 99 2 116 25 166 29 60 109 159 249 304 48 50 138 146 201 215 103 113 172
187 296 316 23 24 46 44 51 44 5 0 19 12 33 26 27 29 65 47 154 74 128 38 304
9 425 -69 30 -20 100 -74 156 -121 55 -47 135 -112 178 -145 43 -33 108 -85
144 -115 37 -31 76 -62 88 -70 12 -8 49 -37 84 -63 35 -26 69 -46 76 -43 7 3
20 -4 29 -14 12 -14 25 -17 50 -13 18 3 35 1 39 -5 4 -7 17 -7 36 -2 16 4 46
6 67 3 28 -4 42 -1 52 11 7 9 22 16 33 16 25 0 125 94 148 140 43 83 51 108
52 165 1 61 -15 127 -39 156 -7 8 -13 20 -13 26 0 20 -75 100 -152 164 -191
158 -264 217 -323 264 -35 28 -78 63 -97 78 -104 87 -181 147 -191 147 -6 0
-20 9 -31 19 -27 24 -77 54 -146 86 -72 34 -99 60 -92 88 5 23 67 102 112 147
50 48 142 179 161 229 25 67 24 139 -3 225 -20 61 -32 80 -93 142 -55 55 -84
76 -130 93 -84 32 -149 36 -212 13z m197 -127 c9 -8 21 -15 28 -15 18 0 102
-103 102 -126 0 -12 7 -27 15 -34 19 -16 19 -89 0 -114 -8 -11 -15 -29 -15
-40 0 -12 -15 -37 -33 -57 -79 -89 -270 -295 -476 -514 -113 -120 -178 -191
-256 -279 -39 -44 -76 -85 -82 -92 -30 -30 -9 -34 37 -7 70 41 115 79 257 223
133 135 168 181 150 199 -17 17 -1 24 63 29 44 3 66 0 85 -12 13 -9 33 -16 44
-16 17 0 43 -11 101 -41 8 -5 35 -19 60 -31 25 -13 47 -25 50 -28 3 -3 24 -18
47 -34 24 -16 53 -38 65 -50 13 -12 52 -44 88 -71 36 -27 67 -53 70 -57 3 -4
31 -27 61 -50 89 -69 179 -140 224 -178 23 -19 72 -60 109 -90 121 -98 130
-110 161 -201 18 -55 18 -58 -1 -119 -21 -67 -81 -140 -142 -172 -46 -25 -182
-25 -220 -1 -32 20 -204 156 -247 195 -16 16 -33 28 -37 28 -5 0 -16 8 -27 18
-44 41 -80 71 -141 117 -36 27 -69 54 -75 60 -5 7 -30 27 -55 45 -25 19 -65
52 -90 73 -25 22 -54 43 -65 48 -11 5 -40 21 -64 34 -24 14 -54 25 -65 25 -12
1 -32 7 -46 15 -18 10 -61 14 -160 14 -99 0 -142 -4 -160 -14 -14 -8 -37 -14
-52 -15 -52 0 -119 -39 -192 -112 -39 -40 -137 -142 -216 -227 -80 -84 -156
-165 -171 -180 -14 -14 -57 -62 -96 -106 -39 -44 -110 -120 -158 -170 -104
-107 -175 -197 -175 -221 0 -10 -6 -25 -13 -33 -8 -9 -19 -52 -26 -96 -9 -65
-9 -96 3 -163 7 -46 19 -89 25 -95 6 -6 11 -19 11 -29 0 -41 101 -158 345
-400 441 -436 640 -628 651 -628 5 0 15 -5 22 -12 41 -41 249 -84 333 -69 121
22 135 27 199 63 8 4 25 12 37 18 32 14 54 34 317 296 132 132 255 248 271
257 87 47 155 59 191 32 10 -8 27 -15 37 -15 10 0 25 -6 33 -12 44 -35 84 -76
84 -85 0 -6 6 -16 13 -22 8 -6 19 -36 26 -66 16 -69 0 -143 -40 -195 -15 -19
-141 -148 -281 -287 -241 -240 -357 -342 -406 -357 -12 -4 -22 -12 -22 -17 0
-5 -8 -9 -19 -9 -10 0 -24 -7 -31 -15 -7 -8 -20 -15 -29 -15 -10 0 -26 -7 -37
-15 -10 -8 -28 -15 -39 -15 -11 0 -33 -7 -49 -15 -15 -8 -42 -15 -60 -15 -17
-1 -49 -7 -71 -15 -57 -21 -309 -21 -358 0 -20 8 -52 15 -71 15 -18 0 -47 7
-62 15 -16 8 -39 15 -50 15 -12 0 -27 7 -34 15 -7 8 -18 15 -25 15 -6 0 -32
11 -56 25 -24 14 -51 28 -59 32 -78 37 -462 394 -950 883 -117 116 -202 223
-229 287 -6 11 -15 24 -20 28 -6 3 -11 14 -11 24 0 10 -7 24 -15 31 -8 7 -15
21 -15 32 0 11 -6 32 -14 46 -23 46 -38 95 -46 152 -4 30 -13 75 -19 100 -15
64 -13 176 4 240 8 30 15 71 15 91 0 19 7 44 15 55 8 10 15 29 15 41 0 12 7
34 14 50 8 15 17 35 20 43 3 8 10 22 15 30 5 8 12 22 15 30 10 26 109 166 127
180 3 3 25 28 49 55 37 43 275 297 351 375 15 14 46 49 69 76 35 41 291 312
381 403 14 14 72 78 129 141 57 63 129 140 159 172 100 101 195 202 235 248
35 41 219 238 343 366 28 30 56 54 61 54 5 0 15 6 22 14 15 19 58 25 139 20
39 -2 71 -10 81 -19z"/>
<path d="M3055 1615 c-8 -71 -19 -102 -50 -144 -30 -41 -106 -98 -141 -107
-16 -4 -33 -9 -38 -12 -14 -8 18 -22 53 -22 87 0 155 45 215 144 28 47 28 49
15 103 -7 31 -20 65 -30 77 -17 20 -17 19 -24 -39z"/>
<path d="M3605 3300 l-560 -5 -57 -27 c-112 -52 -207 -173 -224 -284 -8 -54
10 -153 38 -207 27 -54 122 -142 188 -175 l55 -27 1010 0 1010 0 56 28 c70 34
152 119 187 194 23 49 27 71 27 143 0 72 -4 93 -27 140 -34 69 -128 162 -193
191 -84 38 -253 41 -1510 29z m1473 -121 c46 -23 132 -98 132 -116 0 -6 7 -16
15 -23 11 -9 15 -34 15 -94 0 -114 -32 -173 -125 -235 l-40 -26 -1026 0 c-964
0 -1028 1 -1046 18 -11 9 -23 17 -27 17 -10 0 -55 49 -84 93 -22 34 -25 48
-25 127 0 70 3 94 16 108 10 10 17 23 17 27 0 15 92 95 110 95 9 0 25 7 36 15
16 12 154 14 1003 15 l985 0 44 -21z"/>
</g>
</svg>
