<?xml version="1.0" standalone="no"?>
<!DOCTYPE svg PUBLIC "-//W3C//DTD SVG 20010904//EN"
 "http://www.w3.org/TR/2001/REC-SVG-20010904/DTD/svg10.dtd">
<svg version="1.0" xmlns="http://www.w3.org/2000/svg"
 width="50px" height="50px" viewBox="0,0,256,256"
 preserveAspectRatio="xMidYMid meet">
<metadata>
Created by potrace 1.10, written by Peter Selinger 2001-2011
</metadata>
<g fill="#d0d4d4" fill-rule="nonzero" stroke="none" stroke-width="1" stroke-linecap="butt" stroke-linejoin="miter" stroke-miterlimit="10" stroke-dasharray="" stroke-dashoffset="0" font-family="none" font-weight="none" font-size="none" text-anchor="none" style="mix-blend-mode: normal">
<g transform="translate(-65.000000,320.000000) scale(0.175000,-0.175000)" stroke="none">
<path d="M997 1770 c-71 -27 -129 -80 -167 -152 -32 -58 -35 -70 -35 -153 0
-79 4 -97 28 -147 17 -35 48 -75 79 -102 l52 -45 43 77 c24 42 49 82 54 88 6
8 5 14 -6 17 -26 10 -55 70 -55 112 0 22 9 54 19 71 20 32 74 64 111 64 37 0
91 -32 111 -64 32 -53 24 -121 -22 -171 -17 -19 -16 -22 29 -102 26 -46 51
-83 55 -83 18 0 104 98 127 145 21 42 25 65 25 140 0 84 -2 94 -34 153 -62
114 -162 172 -294 172 -46 -1 -89 -8 -120 -20z m243 -37 c58 -26 124 -91 151
-151 42 -90 27 -214 -34 -294 -44 -58 -60 -59 -91 -5 -31 53 -32 60 -5 96 25
34 28 115 5 158 -35 68 -107 103 -183 88 -48 -9 -122 -82 -124 -123 -4 -57 4
-98 22 -128 25 -41 24 -51 -10 -102 l-28 -43 -31 26 c-17 14 -44 52 -59 83
-97 197 58 431 277 419 36 -2 86 -13 110 -24z"/>
<path d="M683 1130 c-94 -19 -181 -85 -228 -172 -40 -73 -47 -187 -16 -269 75
-198 315 -275 489 -158 67 45 119 117 138 191 24 92 28 88 -86 88 -95 0 -100
-1 -100 -21 0 -57 -72 -119 -138 -119 -40 0 -93 38 -116 83 -52 106 62 220
174 174 11 -5 27 15 60 75 25 44 46 84 48 88 4 11 -78 38 -133 43 -27 3 -69 2
-92 -3z m154 -43 c24 -13 26 -8 -19 -90 -10 -17 -23 -23 -58 -26 -101 -7 -180
-79 -180 -164 0 -84 87 -168 172 -166 57 1 97 25 133 81 l30 47 63 0 64 1 -7
-31 c-46 -207 -286 -296 -467 -172 -91 62 -142 219 -105 323 20 58 76 138 112
160 73 45 212 65 262 37z"/>
<path d="M1613 1011 c-46 -82 -48 -89 -32 -100 54 -33 63 -138 18 -188 -72
-78 -184 -59 -223 38 -21 51 -14 89 24 132 l27 32 -46 82 c-25 45 -50 83 -55
83 -5 0 -32 -24 -61 -52 -92 -93 -120 -229 -74 -353 29 -77 107 -155 186 -185
80 -30 196 -25 268 12 61 31 130 103 156 163 58 132 16 303 -98 393 l-41 32
-49 -89z m104 -5 c29 -29 63 -92 63 -119 0 -13 5 -28 11 -34 7 -7 9 -27 6 -50
-14 -88 -20 -113 -27 -113 -4 0 -11 -11 -14 -24 -7 -27 -100 -116 -122 -116
-8 0 -14 -4 -14 -9 0 -15 -100 -34 -151 -28 -75 9 -125 35 -186 97 -32 33 -41
49 -72 123 -14 34 -15 134 -1 142 6 3 10 17 10 31 0 13 5 24 10 24 6 0 10 6
10 13 0 17 59 87 73 87 10 0 49 -56 65 -92 2 -4 -7 -22 -19 -39 -18 -25 -22
-46 -22 -94 0 -58 2 -65 38 -104 73 -78 168 -80 242 -4 44 45 44 46 42 114 -1
38 -5 69 -8 69 -4 0 -15 14 -24 30 -17 29 -17 31 0 60 9 17 21 30 25 30 4 0 8
9 8 20 0 23 23 17 57 -14z"/>
</g>
</g>
</svg>
