<?xml version="1.0" standalone="no"?>
<!DOCTYPE svg PUBLIC "-//W3C//DTD SVG 20010904//EN"
 "http://www.w3.org/TR/2001/REC-SVG-20010904/DTD/svg10.dtd">
<svg version="1.0" xmlns="http://www.w3.org/2000/svg"
 width="50px" height="50px" viewBox="0,0,256,256"
 preserveAspectRatio="xMidYMid meet">
<metadata>
Created by potrace 1.10, written by Peter Selinger 2001-2011
</metadata>
<g fill="#d0d4d4" fill-rule="nonzero" stroke="none" stroke-width="1" stroke-linecap="butt" stroke-linejoin="miter" stroke-miterlimit="10" stroke-dasharray="" stroke-dashoffset="0" font-family="none" font-weight="none" font-size="none" text-anchor="none" style="mix-blend-mode: normal">
<g transform="translate(-125.000000,270.000000) scale(0.175000,-0.175000)" stroke="none">
<path d="M1224 1258 c-224 -226 -246 -257 -279 -383 -57 -222 60 -469 270
-570 194 -94 413 -61 569 86 66 62 116 142 142 230 22 75 20 209 -6 290 -18
61 -87 180 -112 195 -6 4 -28 -12 -51 -34 l-40 -41 36 -53 c51 -74 68 -130 68
-218 0 -194 -129 -347 -323 -383 -207 -38 -424 129 -444 343 -7 74 13 171 48
229 12 20 90 106 174 191 l153 155 3 88 c2 48 3 87 2 87 0 0 -95 -96 -210
-212z"/>
<path d="M1577 1252 c-20 -22 -22 -73 -5 -90 18 -18 73 -14 91 6 10 10 17 30
17 44 0 51 -69 78 -103 40z"/>
</g>
</g>
</svg>
