<?xml version="1.0" standalone="no"?>
<!DOCTYPE svg PUBLIC "-//W3C//DTD SVG 20010904//EN"
 "http://www.w3.org/TR/2001/REC-SVG-20010904/DTD/svg10.dtd">
<svg version="1.0" xmlns="http://www.w3.org/2000/svg"
 width="50px" height="50px" viewBox="0,0,256,256"
 preserveAspectRatio="xMidYMid meet">
<metadata>
Created by potrace 1.10, written by Peter Selinger 2001-2011
</metadata>
<g fill="#d0d4d4" fill-rule="nonzero" stroke="none" stroke-width="1" stroke-linecap="butt" stroke-linejoin="miter" stroke-miterlimit="10" stroke-dasharray="" stroke-dashoffset="0" font-family="none" font-weight="none" font-size="none" text-anchor="none" style="mix-blend-mode: normal">
<g transform="translate(-95.000000,320.000000) scale(0.06000,-0.06000)" stroke="none">
<path d="M3259 5268 c-19 -17 -70 -53 -89 -61 -8 -4 -28 -16 -45 -27 -16 -11
-39 -24 -50 -30 -11 -6 -47 -26 -80 -45 -33 -19 -69 -40 -80 -45 -11 -6 -33
-19 -50 -30 -16 -11 -36 -22 -42 -25 -7 -3 -19 -7 -25 -10 -7 -3 -26 -14 -43
-25 -16 -11 -39 -24 -50 -30 -11 -6 -33 -19 -50 -30 -16 -11 -36 -22 -42 -25
-7 -3 -19 -7 -25 -10 -7 -3 -26 -14 -43 -25 -16 -11 -41 -25 -55 -31 -14 -5
-39 -21 -57 -35 -17 -13 -38 -24 -47 -24 -8 0 -18 -5 -21 -11 -4 -5 -17 -15
-28 -20 -12 -5 -35 -18 -52 -29 -16 -11 -39 -24 -50 -30 -11 -5 -27 -14 -35
-19 -8 -5 -22 -12 -30 -15 -8 -4 -28 -15 -45 -26 -16 -11 -39 -24 -50 -30 -11
-6 -33 -19 -50 -30 -16 -10 -52 -31 -80 -45 -27 -14 -63 -34 -80 -45 -16 -11
-39 -24 -50 -30 -11 -5 -28 -14 -37 -20 -10 -5 -26 -15 -35 -20 -10 -6 -28
-14 -40 -19 -11 -6 -24 -14 -27 -20 -4 -6 -8 -185 -10 -398 -2 -213 -7 -403
-11 -420 -10 -43 13 -44 65 -3 21 17 43 30 48 30 6 0 15 6 19 13 4 6 28 22 53
35 25 13 59 32 75 42 17 11 39 24 50 30 11 6 34 19 50 30 17 11 40 24 52 29
11 5 24 15 28 20 3 6 15 11 26 11 11 0 22 7 25 15 4 8 14 15 24 15 11 0 22 5
25 11 4 5 17 14 28 20 12 5 29 13 37 18 8 5 22 12 30 16 25 10 62 33 69 42 3
4 26 18 51 31 25 13 59 32 75 42 17 11 40 25 53 31 12 7 22 16 22 21 0 4 7 8
15 8 8 0 19 9 25 20 7 13 21 20 40 20 35 0 34 0 15 -64 -12 -41 -15 -203 -15
-1100 0 -578 0 -1058 0 -1067 0 -9 24 -28 55 -44 31 -15 58 -32 61 -36 3 -5
14 -9 25 -9 10 0 19 -5 19 -10 0 -6 10 -14 23 -19 12 -5 39 -21 60 -35 21 -14
44 -26 52 -26 8 0 17 -5 20 -11 4 -5 17 -15 28 -20 12 -5 36 -18 52 -29 17
-11 39 -24 50 -30 11 -6 34 -19 50 -30 17 -11 37 -23 45 -27 8 -3 32 -19 52
-35 21 -17 43 -28 48 -26 13 4 14 3798 1 3811 -5 5 -14 3 -22 -5z m-65 -194
c3 -8 6 -727 6 -1597 1 -870 2 -1611 4 -1647 1 -36 -3 -90 -8 -120 -15 -78
-19 -78 -161 -1 -33 18 -67 39 -75 46 -8 7 -37 25 -65 39 -112 60 -139 81
-146 115 -4 18 -10 483 -14 1034 -4 551 -8 1021 -10 1044 -3 48 -17 71 -69
113 -29 23 -45 28 -65 24 -24 -6 -160 -75 -256 -130 -22 -13 -53 -30 -70 -38
-16 -9 -39 -21 -49 -28 -51 -33 -125 -76 -166 -96 -25 -13 -76 -42 -115 -66
-38 -24 -86 -50 -107 -57 -34 -11 -41 -10 -56 5 -15 15 -17 45 -17 279 0 256
1 263 23 294 19 27 66 58 219 144 41 24 210 123 248 146 11 7 43 24 70 38 77
39 230 127 346 200 9 5 38 22 65 38 27 15 76 43 109 61 33 19 85 48 115 64 30
16 87 48 125 70 76 43 109 51 119 26z"/>
<path d="M3445 5274 c-14 -6 -9 -3808 5 -3812 5 -2 28 10 49 27 21 17 43 31
49 31 5 0 12 7 16 15 3 8 12 15 20 15 8 0 34 12 58 28 69 44 82 51 103 62 11
6 34 19 50 30 17 11 39 24 50 29 11 5 37 21 58 35 21 14 42 26 47 26 5 0 29
14 53 30 25 17 50 30 55 30 6 0 14 5 18 11 12 20 4 968 -8 1032 -7 31 -15 57
-18 57 -17 0 -41 -41 -49 -86 -5 -27 -10 -240 -10 -474 -1 -273 -5 -437 -12
-458 -8 -24 -23 -39 -59 -57 -27 -14 -51 -29 -55 -34 -3 -6 -27 -20 -53 -33
-26 -13 -64 -35 -85 -50 -21 -15 -51 -30 -68 -33 -16 -4 -29 -10 -29 -15 0
-14 -71 -33 -82 -22 -7 7 -13 2624 -8 3400 0 27 4 32 23 32 12 0 38 -11 57
-24 19 -13 46 -27 60 -31 14 -4 44 -21 67 -36 23 -16 48 -29 56 -29 8 0 20 -7
27 -15 7 -8 51 -35 99 -61 47 -26 109 -61 136 -79 28 -18 93 -55 145 -82 52
-28 113 -63 135 -78 22 -15 50 -31 63 -36 12 -5 67 -36 122 -69 56 -33 103
-60 107 -60 3 0 33 -17 67 -38 63 -40 136 -83 196 -114 66 -35 69 -50 70 -359
0 -219 -3 -279 -13 -288 -16 -12 -99 26 -199 92 -31 20 -61 37 -66 37 -5 0
-25 11 -44 23 -19 13 -63 39 -99 57 -35 19 -73 41 -84 51 -11 9 -51 34 -90 54
-225 121 -230 123 -282 109 -26 -7 -31 -34 -7 -34 10 0 35 -15 58 -33 23 -19
48 -37 56 -40 8 -4 29 -16 45 -27 17 -11 39 -24 50 -30 11 -6 34 -19 50 -30
17 -11 40 -24 52 -29 11 -5 24 -15 28 -20 3 -6 12 -11 20 -11 8 0 33 -12 57
-27 57 -37 75 -48 123 -74 22 -11 59 -34 83 -50 24 -16 49 -29 57 -29 8 0 17
-5 20 -11 4 -5 17 -14 28 -20 23 -9 31 -14 105 -61 24 -16 46 -28 49 -28 3 0
23 -14 44 -31 42 -33 78 -34 63 -1 -5 9 -10 195 -11 412 -2 217 -5 400 -7 407
-3 7 -29 24 -58 38 -29 14 -69 35 -88 47 -19 11 -55 31 -80 45 -25 13 -58 33
-75 44 -16 10 -39 23 -50 29 -11 6 -47 26 -80 45 -33 19 -69 39 -80 45 -11 6
-33 19 -50 29 -16 11 -50 30 -75 42 -25 12 -49 29 -53 36 -4 7 -16 13 -26 13
-10 0 -24 7 -31 15 -7 8 -18 15 -25 15 -7 0 -18 7 -25 15 -7 8 -19 15 -27 15
-8 0 -29 11 -46 24 -18 14 -43 30 -57 36 -36 16 -70 36 -83 49 -6 6 -17 11
-25 11 -7 0 -28 11 -45 24 -18 14 -43 29 -57 35 -14 6 -32 15 -40 21 -22 14
-162 95 -180 103 -8 4 -28 16 -45 27 -16 11 -41 24 -54 30 -24 11 -106 66
-129 88 -7 6 -14 12 -15 11 -1 0 -6 -2 -12 -5z"/>
<path d="M4027 4055 l-27 -30 0 -185 c0 -200 0 -198 59 -264 28 -30 101 -80
200 -136 34 -19 85 -50 113 -67 29 -18 58 -33 65 -33 7 0 20 -17 30 -37 13
-31 17 -78 20 -250 1 -116 0 -219 -3 -227 -8 -21 -40 -20 -72 3 -15 10 -43 26
-62 35 -19 9 -57 29 -85 45 -27 16 -60 30 -72 30 -12 1 -25 6 -28 11 -8 13
-82 13 -90 0 -9 -14 13 -40 32 -40 8 0 33 -15 56 -32 48 -37 73 -54 102 -67
11 -5 36 -20 55 -33 19 -12 53 -32 75 -43 35 -18 89 -54 150 -100 15 -12 21
-13 30 -3 7 9 8 131 5 372 -5 380 -3 362 -50 380 -8 4 -28 15 -45 26 -16 11
-39 24 -50 30 -11 6 -47 26 -80 45 -33 19 -69 39 -80 45 -11 6 -33 19 -50 30
-16 10 -53 30 -81 44 -29 14 -55 33 -59 43 -4 10 -7 86 -6 168 0 89 -4 174
-12 209 l-13 60 -27 -29z"/>
</g>
</g>
</svg>
